<svg xmlns="http://www.w3.org/2000/svg" id="prefix__prefix__Spaceman" width="357.435" height="609.558"><defs><style>.prefix__prefix__cls-1{fill:#8aa5ad}.prefix__prefix__cls-3{fill:#fff}.prefix__prefix__cls-4{fill:#80a2aa}.prefix__prefix__cls-13,.prefix__prefix__cls-7{fill:#4e5e66}.prefix__prefix__cls-8{fill:#6a8089}.prefix__prefix__cls-9{fill:#cee56c}.prefix__prefix__cls-10{fill:#2e505b}.prefix__prefix__cls-11{fill:#264249}.prefix__prefix__cls-12{fill:#1e353a}.prefix__prefix__cls-13{opacity:.25}</style></defs><path id="prefix__prefix__Path_1307" d="M312.325 415.554a100.807 100.807 0 003.445-16.474c.749-7.638 4.343-18.87 6.14-23.812s12.131-19.319 14.078-27.557l-12.431-41.034-32.349 89.858s10.783 5.841 14.977 9.884a28.315 28.315 0 016.14 9.135z" class="prefix__prefix__cls-1" data-name="Path 1307" transform="translate(-83.892 -23.108)"/><path id="prefix__prefix__Path_1308" d="M252.886 445.27s-10.473.288-16.736-6.734c-9.7-10.87-15.012-31.927 0-41.9l40.586 13.216z" class="prefix__prefix__cls-1" data-name="Path 1308" transform="translate(-77.357 -32.232)"/><g id="prefix__prefix__Group_2318" data-name="Group 2318" transform="translate(201.701 188.764)"><circle id="prefix__prefix__Ellipse_366" cx="33.974" cy="33.974" r="33.974" data-name="Ellipse 366" transform="translate(20.275 8.782)" fill="#b1dddd"/><path id="prefix__prefix__Path_1309" d="M362.913 276.043a33.981 33.981 0 007.464-54.846s11.32 15.309 8.076 29.783c-3.444 15.371-15.54 25.063-15.54 25.063z" class="prefix__prefix__cls-3" data-name="Path 1309" transform="translate(-292.865 -203.202)"/><path id="prefix__prefix__Path_1310" d="M357.166 231.877a49.311 49.311 0 008.312-6.888c4.118-4.268 3.669-6.515 3.519-7.413s-12.8-10.858-20.742-13.779-23.738-5.017-34.745 2.846-14.153 23.812-15.051 29.541a118.941 118.941 0 0125.5 12.468c12.131 8.087 21.9 20.667 21.9 20.667l2.471-4.83 1.011-20.78z" class="prefix__prefix__cls-4" data-name="Path 1310" transform="translate(-286.328 -201.171)"/><path id="prefix__prefix__Path_1311" d="M315.208 206.642c11.008-7.863 26.808-5.766 34.745-2.846s20.593 12.88 20.742 13.779.6 3.145-3.519 7.413c0 0 2.9-4.016.708-7.475s-21.087-17.608-37.436-15.7c-13.601 1.587-15.24 4.829-15.24 4.829z" data-name="Path 1311" transform="translate(-288.026 -201.171)" opacity=".5" fill="#fff"/><g id="prefix__prefix__Group_2313" data-name="Group 2313" transform="translate(52.546 23.525)"><path id="prefix__prefix__Path_1312" d="M353.669 246.5l1.486-12.529-.718-3.5a10.616 10.616 0 00-3.742 18.2z" data-name="Path 1312" transform="translate(-343.794 -227.668)" fill="#5d777f"/><circle id="prefix__prefix__Ellipse_367" cx="7.076" cy="7.076" r="7.076" class="prefix__prefix__cls-7" data-name="Ellipse 367" transform="translate(6.723 5.871)"/><circle id="prefix__prefix__Ellipse_368" cx="4.718" cy="4.718" r="4.718" class="prefix__prefix__cls-8" data-name="Ellipse 368" transform="translate(9.082 8.23)"/><path id="prefix__prefix__Path_1313" d="M348.529 251.005a13.8 13.8 0 013.922-23.654l1.626 2.811a10.616 10.616 0 00-3.742 18.2z" class="prefix__prefix__cls-4" data-name="Path 1313" transform="translate(-343.435 -227.351)"/></g><g id="prefix__prefix__Group_2315" data-name="Group 2315" transform="translate(12.044 1.209)"><path id="prefix__prefix__Path_1314" d="M306.909 237.508a3.169 3.169 0 11-2.5-3.763 3.2 3.2 0 012.5 3.763z" class="prefix__prefix__cls-9" data-name="Path 1314" transform="translate(-298.591 -205.678)"/><path id="prefix__prefix__Path_1315" d="M338.425 206.557a2.938 2.938 0 11-2.317-3.49 2.963 2.963 0 012.317 3.49z" class="prefix__prefix__cls-9" data-name="Path 1315" transform="translate(-301.834 -202.567)"/><g id="prefix__prefix__Group_2314" data-name="Group 2314"><path id="prefix__prefix__Path_1316" d="M305.539 234.951c2.224-3.569 1.646-8.016-.067-11.628-.74-1.559-2.161-3.141-2.423-4.875-.521-3.439 3.821-6.273 6.394-7.777 6.383-3.73 14.909-4.4 22.025-2.539 2.871.75 3.736-3.777.876-4.525a34.851 34.851 0 00-24.391 2.64c-4.4 2.353-10.188 6.7-9.542 12.367.57 5 6.3 8.987 3 14.291-1.57 2.519 2.574 4.543 4.13 2.047z" class="prefix__prefix__cls-10" data-name="Path 1316" transform="translate(-298.362 -202.517)"/></g></g><path id="prefix__prefix__Path_1317" d="M292.083 248l5.728-7.863s38.414 12.167 52.9 39.762c.004.001-42.566-21.006-58.628-31.899z" class="prefix__prefix__cls-11" data-name="Path 1317" transform="translate(-285.681 -205.123)"/><path id="prefix__prefix__Path_1318" d="M299.4 253.76s21.117 5.279 30.439 11.569 22.127 15.95 23.363 18.533a11.236 11.236 0 011.236 4.381l-18.008-2.733-9.13-10.71-31.713-9.81z" class="prefix__prefix__cls-12" data-name="Path 1318" transform="translate(-286.036 -206.505)"/><path id="prefix__prefix__Path_1319" d="M284.958 261.764l5.5-13.254 4.156 1.573-5.167 12.8z" class="prefix__prefix__cls-11" data-name="Path 1319" transform="translate(-284.958 -205.972)"/><path id="prefix__prefix__Path_1320" d="M295.125 250.26l3.707 3.145-3.819 11.232-5.055-1.573z" class="prefix__prefix__cls-10" data-name="Path 1320" transform="translate(-285.466 -206.15)"/><g id="prefix__prefix__Group_2317" data-name="Group 2317" transform="translate(40.418 39.476)"><path id="prefix__prefix__Path_1321" d="M333.413 252.516a1.746 1.746 0 11-1.976-1.48 1.746 1.746 0 011.976 1.48z" class="prefix__prefix__cls-9" data-name="Path 1321" transform="translate(-329.938 -245.703)"/><path id="prefix__prefix__Path_1322" d="M352.39 246.6a1.746 1.746 0 11-1.976-1.48 1.745 1.745 0 011.976 1.48z" class="prefix__prefix__cls-9" data-name="Path 1322" transform="translate(-331.863 -245.103)"/><g id="prefix__prefix__Group_2316" data-name="Group 2316" transform="translate(.623 .639)"><path id="prefix__prefix__Path_1323" d="M348.4 247.959c2.189.722 4.806 2.174 5.515 4.494 1.829 5.982-4.783 6.649-8.5 5.636a42.229 42.229 0 01-12.981-6.651c-1.176-.841-2.526.955-1.347 1.8 5.16 3.689 13.547 9.239 20.191 7.374a7.322 7.322 0 004.835-8.792c-.909-2.984-4.033-5.007-6.862-5.94-1.369-.451-2.221 1.628-.846 2.081z" class="prefix__prefix__cls-10" data-name="Path 1323" transform="translate(-330.631 -245.814)"/></g></g></g><g id="prefix__prefix__Group_2319" data-name="Group 2319" transform="translate(79.424 373.285)"><path id="prefix__prefix__Path_1324" d="M303.853 425.68s8.761 7.114 6.065 47.325-.449 32.573-1.8 39.537-4.265 7.639-4.718 11.458-4.718 11.008-9.66 16.174-25.834 20.892-29.653 23.138-9.435 5.616-11.008 7.413-6.739-.225-6.739-.225a9.322 9.322 0 01-2.92-6.065c-.337-3.931-3.033-5.055-3.931-6.739s-.449-4.493-1.685-5.841-7.3-3.931-8.312-6.29-1.8-3.145-3.145-3.594-3.033-.9-3.931-2.7-1.348-.786-3.257-1.011-2.7-.112-4.156-1.909-1.909-1.123-3.482-1.011-2.246 4.044-2.246 4.044a7.7 7.7 0 01-1.46-2.359 2.888 2.888 0 01.674-2.92c.674-.562 1.011-.337 1.685-1.236a8.912 8.912 0 015.953-2.471 8.908 8.908 0 006.852-3.594c1.572-2.134 3.033-2.7 4.942-4.268s2.359-4.942 4.83-5.841 4.156-4.044 6.627-4.942a8.94 8.94 0 005.167-5.728c.449-2.134 4.156-5.279 7.189-6.065 0 0-.112-17.859 1.236-20.33s3.707-4.605 3.819-6.178-2.583-6.964-2.583-12.8 1.011-7.863-.112-9.884-3.482-2.7-3.594-7.413-3.394-12.1 9.1-26.62c13.142-15.276 29.878-9.772 35.381-6.515s8.872 15.46 8.872 15.46z" class="prefix__prefix__cls-3" data-name="Path 1324" transform="translate(-154.845 -406.52)"/><path id="prefix__prefix__Path_1325" d="M222.42 543.59c-.9-1.8-1.348-.786-3.257-1.011s-2.7-.112-4.156-1.909-1.909-1.123-3.482-1.011-2.246 4.044-2.246 4.044a7.7 7.7 0 01-1.46-2.359 2.888 2.888 0 01.674-2.92c.674-.562 1.011-.337 1.685-1.236a8.912 8.912 0 015.953-2.471 8.908 8.908 0 006.852-3.594c1.572-2.134 3.033-2.7 4.942-4.268s2.359-4.942 4.83-5.841 4.156-4.044 6.627-4.942a8.94 8.94 0 005.167-5.728c.449-2.134 4.156-5.279 7.189-6.065 0 0-.112-17.859 1.236-20.33s3.707-4.605 3.819-6.178-2.583-6.964-2.583-12.8 1.011-7.863-.112-9.884c-1-1.8-2.988-2.535-3.484-6.022 0 0 2.031 5.573 6.183 5.573s4.917 5.436 2.266 8.087-.145 3.145 1.545 9.66-.979 7.26-2.116 12.167 1.143 5.507.572 8.765-3.955 2.668-2.831 6.031 2.246 10.173-.674 10.173-8.761 2.4-8.761 4.424-3.37 7.638-6.515 7.638-5.841 3.816-8.087 9.209-5.07 2.441-7.349 4.719-2.427 8.079-2.427 8.079z" class="prefix__prefix__cls-13" data-name="Path 1325" transform="translate(-154.845 -410.834)"/><path id="prefix__prefix__Path_1326" d="M209.642 555.291l-.225-1.46s-1.011-3.145.337-4.493 21-.225 31.338 15.276 6.515 20.667 6.515 20.667l-4.493 1.685a10.081 10.081 0 01-9.435-2.583c-4.493-4.157-24.037-29.092-24.037-29.092z" class="prefix__prefix__cls-7" data-name="Path 1326" transform="translate(-154.983 -420.963)"/><path id="prefix__prefix__Path_1327" d="M162.208 590.876a17.777 17.777 0 018.536-4.268 16.653 16.653 0 009.1-4.942c1.348-1.236 2.359-1.573 4.268-3.145s10.558-8.986 13.142-12.917 4.718-8.761 8.424-10.109 16.062 7.526 21.341 17.3 4.044 9.547 4.044 11.681l1.348 2.471s3.819-1.8 5.391-2.583c0 0 1.123 1.91.562 3.257 0 0-16.4 7.189-21.79 10.9s-20.33 13.7-21.117 19.656 1.236 11.569 2.134 13.928 4.044 9.884 2.7 14.939-2.028 8.756-6.291 10.776c0 0-4.156-.225-9.547-10.221a97.947 97.947 0 01-8.986-23.7c-1.685-6.29-2.134-8.087-6.065-12.692s-3.033-5.167-2.7-7.413 3.145-6.178 3.145-6.178z" class="prefix__prefix__cls-3" data-name="Path 1327" transform="translate(-150.232 -421.616)"/><path id="prefix__prefix__Path_1328" d="M169.846 597.615l-7.638-6.739a17.777 17.777 0 018.536-4.268 16.653 16.653 0 009.1-4.942c1.348-1.236 2.359-1.573 4.268-3.145s10.558-8.986 13.142-12.917 4.718-8.761 8.424-10.109c2.187-.8 7.384 1.967 12.363 6.373 0 0-12.739 2.838-14.966 9.8s-24.242 14.377-26.488 20.218-6.741 5.729-6.741 5.729z" class="prefix__prefix__cls-13" data-name="Path 1328" transform="translate(-150.232 -421.616)"/><path id="prefix__prefix__Path_1329" d="M148.95 604.01a21.473 21.473 0 002.92 12.58c3.707 5.953 8.424 9.547 9.435 13.591s-.225 10.558 3.931 16.848 12.243 16.736 26.845 15.725L163.1 611.985l-5.616-6.178z" class="prefix__prefix__cls-7" data-name="Path 1329" transform="translate(-148.88 -426.55)"/><path id="prefix__prefix__Path_1330" d="M148.958 603.085l3.145-5.616 8.761-2.583s6.4 3.033 8.087 5.616-1.348 5.616-1.685 7.076-1.348 2.92.449 5.055 4.942 6.065 5.728 7.975 7.975 17.859 7.975 17.859 2.583-2.134 5.391-.786 4.493 8.087 5.728 8.424 5.391-5.728 5.391-5.728 2.808 7.076.786 13.142-4.381 7.638-6.065 8.312-8.986-5.167-17.41-21.341-8.536-19.993-10.783-23.475-3.145-7.526-7.75-10.9z" class="prefix__prefix__cls-8" data-name="Path 1330" transform="translate(-148.888 -425.625)"/></g><g id="prefix__prefix__Group_2320" data-name="Group 2320" transform="translate(0 358.674)"><path id="prefix__prefix__Path_1331" d="M151.265 529.651s4.381 1.685 5.953 1.685 2.022-1.46 3.37-1.235 7.3-1.8 9.323-3.145a40.867 40.867 0 015.728-3.257 54.241 54.241 0 006.29-3.033c1.123-.786 2.246-2.92 4.493-3.819a22.875 22.875 0 007.3-5.167c1.8-2.022 3.594-6.852 5.841-8.649s4.268-2.7 5.167-4.493 1.46-3.931 2.808-4.605 3.033-2.022 3.37-3.033 1.236.112 4.156-3.257 3.033-7.076 5.5-10.109 2.583-2.92 3.594-5.953 2.808-3.033 3.257-4.718 2.92-4.044 3.145-6.627 4.493-3.819 4.942-5.616 7.75-10 7.75-10-22.015-4.156-22.914-24.374c-.817-18.379 5.866-24.163 6.178-24.262l-16.511-5.728a77.321 77.321 0 00-2.246 8.2 7.1 7.1 0 01-3.257 4.942c-1.348.786-4.268 7.189-4.83 9.323s-7.863 8.986-10.109 15.051-.562 7.413-3.033 8.986a31.836 31.836 0 00-7.3 5.616c-2.471 2.7-6.178 5.841-7.863 7.638s-4.493 2.7-5.391 5.167-.562 3.257-1.348 5.167-1.685 6.065-1.123 7.526a3.167 3.167 0 00-.449 1.8c.112.9-3.37 1.685-3.482 2.7a3.693 3.693 0 01-2.92 2.92c-1.685.225-5.841-.449-7.076 1.236s-1.123 2.471-2.022 2.808a2.273 2.273 0 00-1.348 2.022c0 .674-3.033 1.573-4.718 3.033s-1.236 3.707-3.707 4.156a8.572 8.572 0 00-5.953 3.594z" class="prefix__prefix__cls-3" data-name="Path 1331" transform="translate(-67.727 -390.26)"/><path id="prefix__prefix__Path_1332" d="M139.821 507.557l-7.988-15.421a8.572 8.572 0 015.953-3.594c2.471-.449 2.022-2.7 3.707-4.156s4.718-2.359 4.718-3.033a2.273 2.273 0 011.348-2.022c.9-.337.786-1.123 2.022-2.808s5.391-1.011 7.076-1.236a3.693 3.693 0 002.92-2.92c.112-1.011 3.594-1.8 3.482-2.7a3.167 3.167 0 01.449-1.8c-.562-1.46.337-5.616 1.123-7.526s.449-2.7 1.348-5.167 3.707-3.37 5.391-5.167 5.391-4.942 7.863-7.638a31.836 31.836 0 017.3-5.616c2.471-1.573.786-2.92 3.033-8.986s9.547-12.917 10.109-15.051 3.482-8.536 4.83-9.323a7.1 7.1 0 003.257-4.942 77.321 77.321 0 012.246-8.2l6.942 2.408s1.407 8.375-2.562 12.344-9.884 4.563-9.884 10.181-.264 16-4.513 17.435-6.944 10.51-6.944 14.51-5.9 3.532-9.762 7.4c-1.476 1.476-.434 6.793-2.442 10.173-1.948 3.278-5.57 1.041-6.33 2.829-1.743 4.1-1.271 8.661-4.175 9.435-6.745 1.8-10.77 3.115-14.35 6.694s-2.948 6.132-5.4 8.581-10.767 9.45-10.767 15.316z" class="prefix__prefix__cls-13" data-name="Path 1332" transform="translate(-67.727 -390.26)"/><path id="prefix__prefix__Path_1333" d="M128.688 513.519s-1.236-6.515 2.808-10 17.41 2.359 25.5 13.816 5.391 18.87 2.92 21-6.739.786-6.739.786z" class="prefix__prefix__cls-7" data-name="Path 1333" transform="translate(-67.39 -401.646)"/><path id="prefix__prefix__Path_1334" d="M82.374 598.188a27.26 27.26 0 007.863-2.92c3-1.947 4.718-4.643 5.018-6.59s2.546-9.51 3.894-11.831 2.995-2.771 4.044-3.594 5.542-5.467 6.44-7.189 8.012-7.339 14.9-12.206 20.593-10.334 25.459-14.676-1.647-15.2-6.664-19.843-10.858-7.114-14.377-7.413-5.616 3.145-7.413 6.439-13.629 15.875-18.122 20.593-21.79 20.368-21.79 20.368z" class="prefix__prefix__cls-3" data-name="Path 1334" transform="translate(-62.635 -402.598)"/><path id="prefix__prefix__Path_1335" d="M100.125 572.3l-18.5-12.975s17.3-15.651 21.79-20.368 16.324-17.3 18.122-20.593 3.894-6.739 7.413-6.439 9.36 2.77 14.377 7.413c0 0-7.7 1.5-18.272 8.836a57.66 57.66 0 00-24.93 44.126z" class="prefix__prefix__cls-13" data-name="Path 1335" transform="translate(-62.635 -402.598)"/><path id="prefix__prefix__Path_1336" d="M76.86 569.109s1.2-5.691 6.59-6.439 13.179 5.091 14.526 9.884-1.048 7.189-2.995 8.087-5.167 2.546-5.766 3.819a22.628 22.628 0 00-2.7 7.937c-.524 4.118-.9 8.162-3.37 9.81s-4.493 1.348-6.215.075-13.179-12.505-14.527-14-2.118-4.158-1.872-7.189c.225-2.771 1.272-4.643 5.167-7.489 4.751-3.47 6.82-1.874 11.162-4.495z" class="prefix__prefix__cls-7" data-name="Path 1336" transform="translate(-60.491 -407.74)"/></g><g id="prefix__prefix__Group_2321" data-name="Group 2321" transform="translate(92.297 250.845)"><path id="prefix__prefix__Path_1337" d="M185.148 294.581s-3.145-2.1-4.044-3.445a4.964 4.964 0 00-3.884-1.8c-1.049 0-2.107-.449-2.669 1.685a4.81 4.81 0 01-.749 1.273 16.954 16.954 0 01-2.658 1.085c-1.123.3-2.547 2.172-3 4.418 0 0-2.4.674-2.77 1.947a26.289 26.289 0 00-.225 5.091s-2.022.974-1.947 2.621.225 5.542 1.049 6.215.973 1.647 2.321 1.048a4.939 4.939 0 002.547-2.77 6.329 6.329 0 00.225-1.5 85.231 85.231 0 008.312 3.969z" class="prefix__prefix__cls-8" data-name="Path 1337" transform="translate(-163.206 -272.191)"/><path id="prefix__prefix__Path_1338" d="M178.868 306.053a16.667 16.667 0 013.819-9.734c2.321-2.77 5.766-4.792 8.386-4.792s3.07.3 3.67-.375a10.762 10.762 0 014.718-2.77 7.472 7.472 0 002.77-.674c.674-.375 3.894-1.8 5.766-1.573s19.244-12.88 34-15.875l-23.517 50.994s-8.162 2.172-11.232 1.2-6.215.525-7.638 0-3.894-1.573-4.642-1.5-5.391 1.123-8.163-.15-8.686-5.091-7.937-14.751z" class="prefix__prefix__cls-3" data-name="Path 1338" transform="translate(-164.788 -270.26)"/><path id="prefix__prefix__Path_1339" d="M227.878 304.328l-9.4 20.382s-8.162 2.172-11.232 1.2-6.215.525-7.638 0-3.894-1.573-4.642-1.5-5.391 1.123-8.163-.15-8.686-5.092-7.937-14.752c0 0 1.5 9.475 7.863 10.541s2.995-1.849 7.712-1.849 1.652 3.493 6.554 3.493 6.988-3.493 10.663-3.493 16.22-13.872 16.22-13.872z" class="prefix__prefix__cls-13" data-name="Path 1339" transform="translate(-164.788 -273.715)"/></g><g id="prefix__prefix__Group_2325" data-name="Group 2325" transform="translate(79.491)"><path id="prefix__prefix__Path_1340" d="M275.168 395.9s-7.788-2.995-5.991-19.319 11.382-42.083 17.373-57.509 17.972-38.039 32.2-43.73c0 0-46.277-14.228-49.721-15.276s-14.977-2.846-20.218 4.193-17.073 28.605-22.165 42.084-16.174 45.378-15.276 56.31 5.092 13.779 8.836 14.977 54.962 18.27 54.962 18.27z" class="prefix__prefix__cls-10" data-name="Path 1340" transform="translate(-155.28 -18.278)"/><path id="prefix__prefix__Path_1341" d="M305.894 271.387l12.855 3.952c-14.227 5.691-26.209 28.305-32.2 43.73s-15.576 41.185-17.373 57.509 5.991 19.319 5.991 19.319l-14.152-4.715s-2.622-2.474-4.868-12.208 4.044-29.054 6.29-35.195-2.845-8.087-4.792-8.836-17.971-5.691-22.314-7.039-5.692.449-7.339 3.294-6.739 13.479-8.536 23.363 5.6 24.662 5.6 24.662a914.03 914.03 0 00-4.856-1.6c-3.743-1.2-7.937-4.044-8.836-14.977s10.184-42.831 15.276-56.31 16.923-35.044 22.165-42.084 16.773-5.241 20.218-4.193l3.031.928s-8.872 4.163-10.819 6.71-3.594 5.391 0 6.888 22.614 7.039 25.01 7.938 5.692 2.1 8.986-2.4 10.663-8.736 10.663-8.736z" class="prefix__prefix__cls-9" data-name="Path 1341" transform="translate(-155.28 -18.278)"/><path id="prefix__prefix__Path_1342" d="M281.668 397.735s-7.788-2.995-5.991-19.319 11.382-42.083 17.373-57.509 17.971-38.039 32.2-43.73l7.039 10.184-42.683 106.182z" class="prefix__prefix__cls-11" data-name="Path 1342" transform="translate(-161.78 -20.116)"/><path id="prefix__prefix__Path_1343" d="M291.208 393.542l7.638-5.092 40.735-97.2-12.73-14.078 7.039 10.184z" class="prefix__prefix__cls-12" data-name="Path 1343" transform="translate(-163.383 -20.116)"/><ellipse id="prefix__prefix__Ellipse_369" cx="16.031" cy="16.099" class="prefix__prefix__cls-10" data-name="Ellipse 369" rx="16.031" ry="16.099" transform="rotate(-80.483 219.905 99.96)"/><path id="prefix__prefix__Path_1344" d="M273.558 310.3a12.653 12.653 0 11-10.4-14.517 12.626 12.626 0 0110.4 14.517z" class="prefix__prefix__cls-12" data-name="Path 1344" transform="translate(-159.043 -21.985)"/><circle id="prefix__prefix__Ellipse_370" cx="3.819" cy="3.819" r="3.819" class="prefix__prefix__cls-9" data-name="Ellipse 370" transform="translate(155.681 247.925)"/><g id="prefix__prefix__Group_2322" data-name="Group 2322" transform="translate(122.777 249.035)"><path id="prefix__prefix__Path_1345" d="M302.617 320.2a17.609 17.609 0 01-7.506-4.173c-5.1-4.952-2.3-11.855.847-17.094a116.943 116.943 0 0113.3-17.389c2.948-3.279 7.919-6.223 11.782-6.542 4.292-.354 4.329-7.1 0-6.739a25.652 25.652 0 00-16.052 7.99c-6.2 6.569-12.829 14.6-16.746 22.767-3.212 6.7-4.161 14.417.9 20.46a23.649 23.649 0 0011.682 7.22c4.191 1.138 5.978-5.361 1.792-6.5z" class="prefix__prefix__cls-8" data-name="Path 1345" transform="translate(-285.59 -268.245)"/></g><path id="prefix__prefix__Path_1346" d="M264.2 306.234a6.879 6.879 0 11-5.653-7.892 6.866 6.866 0 015.653 7.892z" class="prefix__prefix__cls-9" data-name="Path 1346" transform="translate(-159.258 -22.253)"/><g id="prefix__prefix__Group_2323" data-name="Group 2323"><path id="prefix__prefix__Path_1347" d="M246.052 266.9c3.548.455.545-.07-.444-.417 1.991.7-.443-.278-.953-.567a38.028 38.028 0 01-2.575-1.673c-7.321-5.665-11.969-14.269-16.022-22.374-6.089-12.177-10-26.159-22.56-33.257-10.64-6.011-22.74-8.454-32.617-15.973-4.224-3.215-7.874-7.423-8.506-12.757a20.3 20.3 0 014.289-14.561c7.78-9.159 20.915-13.93 32-18.418 14.63-5.923 29.746-11.3 43.251-19.591 10.666-6.551 22.854-16.359 25.767-29.248 2.45-10.848-2.624-20.431-9.236-28.661C249.8 58.637 239.1 49.7 230.3 39.042c-9.818-11.892-16.573-25.809-16.87-41.434-.164-8.662-13.643-8.691-13.479 0 .3 15.609 5.657 30.289 14.66 42.964 7.847 11.046 17.589 20.328 26.918 30.073 3.894 4.069 7.308 7.749 9.958 11.958a36.177 36.177 0 011.6 2.788 23.8 23.8 0 01.8 1.676c-.475-1.121-.083-.152-.005.071a26.331 26.331 0 01.932 3.389c.37 1.8-.049-.917.025.207.045.676.056 1.342.054 2.019-.005 1.732.238.06-.211 1.729a27.027 27.027 0 00-.779 2.615 27.749 27.749 0 01-4.422 6.777c-4.784 5.532-10.707 9.742-17.014 13.37-13.367 7.69-28.02 12.72-42.2 18.638-12.614 5.264-26.7 11.058-35.106 22.393a31.6 31.6 0 001.446 39.431c4.518 5.2 10.627 9.045 16.726 12.116 2.76 1.389 5.586 2.629 8.43 3.834 2.606 1.1 7.011 2.873 8.669 3.577a56.687 56.687 0 018.347 4.275 15.761 15.761 0 014.786 4.958c4.938 7.865 8.073 16.943 12.356 25.17 5.976 11.478 15.894 26.918 30.129 28.742 3.617.464 6.739-3.429 6.739-6.739 0-4.027-3.112-6.275-6.739-6.739z" class="prefix__prefix__cls-10" data-name="Path 1347" transform="translate(-148.955 8.899)"/></g><g id="prefix__prefix__Group_2324" data-name="Group 2324" transform="translate(9.011 .013)" opacity=".1"><path id="prefix__prefix__Path_1348" d="M253.809 273.642c0-4.027-3.112-6.275-6.739-6.739 3.548.455.545-.07-.444-.417 1.991.7-.443-.278-.953-.567a38.028 38.028 0 01-2.575-1.673c-7.321-5.665-11.969-14.269-16.022-22.374-6.089-12.177-10-26.159-22.56-33.257-10.64-6.011-22.74-8.454-32.617-15.973-4.224-3.215-7.874-7.423-8.506-12.757a20.3 20.3 0 014.289-14.561c7.78-9.159 20.915-13.93 32-18.418 14.63-5.923 29.746-11.3 43.251-19.591 10.666-6.551 22.854-16.359 25.767-29.248 2.45-10.848-2.624-20.431-9.236-28.661-8.651-10.767-19.345-19.708-28.144-30.362-9.82-11.893-16.576-25.81-16.872-41.434a6.474 6.474 0 00-6.425-6.495 5.967 5.967 0 013.58 4.7c1.245 9.856 2.213 26.386 12.815 39.687 15.639 19.619 43.849 44.622 41.153 58.707s-16.978 26.937-37.046 35.937-60.575 16.984-67.321 35.871c-4.415 12.359-3.217 23.315 12.545 33.775 14.942 9.916 34.944 11.848 39.891 21.908s13.128 35.684 25.713 43.927c10.588 6.934 14.456 8.015 14.456 8.015z" class="prefix__prefix__cls-3" data-name="Path 1348" transform="translate(-158.983 8.885)"/></g></g><g id="prefix__prefix__Group_2326" data-name="Group 2326" transform="translate(240.448 266.311)"><path id="prefix__prefix__Path_1349" d="M421.792 418.007s1.048 6.515 4.044 8.911 4.642-.9 4.268-2.92a24.1 24.1 0 01-.375-3.894l-3.755-2.1z" class="prefix__prefix__cls-7" data-name="Path 1349" transform="translate(-337.584 -300.711)"/><path id="prefix__prefix__Path_1350" d="M402.875 413.85s20.817 1.723 25.984 5.391a36.87 36.87 0 012.845 7.413c.525 2.846 1.723 2.77 2.7 2.4s2.471-1.273 2.172-5.542-.15-3.52-.15-3.52.525 5.841 2.1 7.039 4.118.374 4.493-5.616c0 0 2.7 3.294 3.669 3.294s2.471-1.2 1.947-4.792a20.526 20.526 0 00-2.846-7.114s4.643 1.049 5.691.9 1.723-2.022.6-3.594-9.06-6.215-10.933-7.039-5.017-.749-6.964-1.5-11.232-2.022-13.179-1.8-6.889-2.845-6.889-2.845a84.619 84.619 0 00-11.24 16.925z" class="prefix__prefix__cls-8" data-name="Path 1350" transform="translate(-335.665 -298.573)"/><path id="prefix__prefix__Path_1351" d="M341.9 288.18c11.279-3.222 19.993 5.064 23.588 14.438s-.829 16.545 1.123 18.5 1.841 8.51 2.022 12.946c.112 2.754 1.348 4.664 2.359 5.225a5.345 5.345 0 012.583 3.37c.225 1.46.225 4.493 3.033 6.065s3.594 2.246 4.156 4.268.337 3.707 2.134 5.167 3.2 1.628 3.988 3.088.393 2.583 1.741 3.145a5.687 5.687 0 012.64 1.8c.842.955.112 1.8 1.179 2.134s3.2 1.18 3.763 2.808-.73 2.865 1.4 4.156 3.2-.449 5.9 2.359a10.894 10.894 0 013.088 9.716c-.562 3.707-4.156 9.266-7.918 12.748s-6.515 4.044-10.9 3.763-5.953-2.808-6.29-3.651a7.778 7.778 0 00-2.415-3.2 24.209 24.209 0 01-3.482-2.865 20.052 20.052 0 00-3.875-2.92c-1.573-1.067-7.3-4.83-10.84-8.536s-4.942-6.178-6.852-8.087-5.223-4.83-7.526-8.087-6.29-5.784-7.3-8.143-.674-6.964-2.359-9.884-6.065-11.008-7.413-20.106-2.628-18.285 1.123-29.091c2.812-8.093 8.203-10.227 11.35-11.126z" class="prefix__prefix__cls-3" data-name="Path 1351" transform="translate(-328.079 -287.472)"/><path id="prefix__prefix__Path_1352" d="M398.677 400.188c-3.763 3.482-6.515 4.044-10.9 3.763s-5.953-2.808-6.29-3.651a7.779 7.779 0 00-2.415-3.2 24.213 24.213 0 01-3.482-2.865 20.052 20.052 0 00-3.875-2.92c-1.573-1.067-7.3-4.83-10.84-8.536s-4.942-6.178-6.852-8.087-5.223-4.83-7.526-8.087-6.29-5.784-7.3-8.143-.674-6.964-2.359-9.884-6.065-11.008-7.413-20.106-2.628-18.285 1.123-29.091c2.808-8.087 8.2-10.221 11.345-11.12 0 0-7.638 7.985-6.515 14.438s5.427 11.922 2.826 18.848-.692 14.825 1.518 17.034 4.576 9.244 4.576 14.056 2.851 5.906 6.656 9.711 3.108 8 6.67 11.559 8.341 3.64 13.023 8.323 2.35 8.917 6.9 10.264 6.607-.139 9.667 2.92 11.463 4.774 11.463 4.774z" class="prefix__prefix__cls-13" data-name="Path 1352" transform="translate(-328.079 -287.552)"/></g></svg>